<svg viewBox="0 0 160 160" xmlns="http://www.w3.org/2000/svg" xmlns:xlink="http://www.w3.org/1999/xlink" class="icon" draggable="false" aria-hidden="true">
<defs>
<linearGradient x1="100%" y1="100%" x2="0%" y2="30%" id="linea_b">
  <stop stop-color="#fff" offset="0%"></stop>
  <stop stop-color="#999" stop-opacity="1" offset="100%"></stop>
</linearGradient>
<path d="M89.905 152.381a3.81 3.81 0 110 7.619 3.81 3.81 0 010-7.619zm-23.737 2.79a3.81 3.81 0 117.36 1.973 3.81 3.81 0 01-7.36-1.972zm46.799-5.126a3.81 3.81 0 11-7.36 1.972 3.81 3.81 0 017.36-1.972zm-60.58-2.409a3.81 3.81 0 11-3.81 6.598 3.81 3.81 0 013.81-6.598zm28.777-4.373a3.302 3.302 0 11-.804 6.554 3.302 3.302 0 01.804-6.554zm-16.684-1.899a3.338 3.338 0 11-2.5 6.19 3.338 3.338 0 012.5-6.19zm36.901 2.383a3.338 3.338 0 11-6.61.93 3.338 3.338 0 016.61-.93zm28.591-4.621a3.81 3.81 0 11-6.598 3.81 3.81 3.81 0 016.598-3.81zm-94.15-.941a3.81 3.81 0 11-5.387 5.387 3.81 3.81 0 015.388-5.387zm52.547-.486a3.023 3.023 0 110 6.047 3.023 3.023 0 010-6.047zm-15.136.077a3.023 3.023 0 11-1.565 5.841 3.023 3.023 0 011.565-5.84zm-24.278-2.592a3.338 3.338 0 11-4.017 5.331 3.338 3.338 0 014.017-5.331zm68.381.883a3.338 3.338 0 11-6.145 2.609 3.338 3.338 0 016.145-2.609zm-10.664-.222a3.023 3.023 0 11-5.841 1.565 3.023 3.023 0 015.84-1.565zm-48.079-1.912a3.023 3.023 0 11-3.023 5.237 3.023 3.023 0 013.023-5.237zm22.334-3.47a2.62 2.62 0 11-.639 5.201 2.62 2.62 0 01.639-5.202zm-13.241-1.507a2.65 2.65 0 11-1.985 4.912 2.65 2.65 0 011.985-4.912zm29.286 1.891a2.65 2.65 0 11-5.246.737 2.65 2.65 0 015.246-.737zm23.196-3.668a3.023 3.023 0 11-5.236 3.024 3.023 3.023 0 015.236-3.024zm-74.721-.747a3.023 3.023 0 11-4.276 4.276 3.023 3.023 0 014.276-4.276zm98.125-2.255a3.81 3.81 0 11-5.387 5.388 3.81 3.81 0 015.387-5.388zM35.56 125.196a3.338 3.338 0 11-5.26 4.11 3.338 3.338 0 015.26-4.11zm-13.29-.428a3.81 3.81 0 11-6.599 3.81 3.81 3.81 0 016.599-3.81zm108.491-.249a3.338 3.338 0 11-5.26 4.11 3.338 3.338 0 015.26-4.11zm-75.396-.468a2.65 2.65 0 11-3.188 4.231 2.65 2.65 0 013.188-4.231zm54.271.7a2.65 2.65 0 11-4.877 2.071 2.65 2.65 0 014.877-2.07zm21.327-9.436a3.023 3.023 0 11-4.276 4.276 3.023 3.023 0 014.276-4.276zm-86.23.808a2.65 2.65 0 11-4.175 3.262 2.65 2.65 0 014.175-3.262zm-10.043-.339a3.023 3.023 0 11-5.236 3.024 3.023 3.023 0 015.236-3.024zm85.6-.197a2.65 2.65 0 11-4.175 3.262 2.65 2.65 0 014.175-3.262zm-95.085-3.507a3.338 3.338 0 11-6.145 2.609 3.338 3.338 0 016.145-2.609zm115.534-2.19a3.338 3.338 0 11-4.018 5.332 3.338 3.338 0 014.018-5.331zm12.102-3.672a3.81 3.81 0 11-3.81 6.599 3.81 3.81 0 013.81-6.599zM12.65 108.301a3.81 3.81 0 11-7.36 1.972 3.81 3.81 0 017.36-1.972zm23.865-2.586a2.65 2.65 0 11-4.877 2.07 2.65 2.65 0 014.877-2.07zm91.693-1.738a2.65 2.65 0 11-3.188 4.231 2.65 2.65 0 013.188-4.231zm10.11-2.915a3.023 3.023 0 11-3.023 5.237 3.023 3.023 0 013.023-5.237zm-111.262 1.653a3.023 3.023 0 11-5.841 1.565 3.023 3.023 0 015.84-1.565zm-8.458-5.983a3.338 3.338 0 11-6.611.93 3.338 3.338 0 016.61-.93zm127.992-3.554a3.338 3.338 0 11-2.5 6.19 3.338 3.338 0 012.5-6.19zm-115.319.356a2.65 2.65 0 11-5.246.737 2.65 2.65 0 015.246-.737zm101.581-2.821a2.65 2.65 0 11-1.984 4.912 2.65 2.65 0 011.984-4.912zm19.627-1.547a3.81 3.81 0 117.36 1.972 3.81 3.81 0 01-7.36-1.972zM3.81 86.096a3.81 3.81 0 110 7.618 3.81 3.81 0 010-7.619zm137.923-.705a3.023 3.023 0 11-1.565 5.84 3.023 3.023 0 011.565-5.84zm-121.694-.3a3.023 3.023 0 110 6.047 3.023 3.023 0 010-6.047zm-6.938-8.368a3.302 3.302 0 11-.805 6.554 3.302 3.302 0 01.805-6.554zm13.807.93a2.62 2.62 0 11-.638 5.202 2.62 2.62 0 01.638-5.202zm120.796-1.946a3.302 3.302 0 11-.805 6.554 3.302 3.302 0 01.805-6.554zm-13.968 1.14a2.62 2.62 0 11-.638 5.201 2.62 2.62 0 01.638-5.201zm7.24-7.477a3.023 3.023 0 110 6.046 3.023 3.023 0 010-6.046zm-120.128-.094a3.023 3.023 0 11-1.565 5.841 3.023 3.023 0 011.565-5.84zm135.342-2.99a3.81 3.81 0 110 7.619 3.81 3.81 0 010-7.62zM.162 68.862a3.81 3.81 0 117.36 1.972 3.81 3.81 0 01-7.36-1.972zm29.28-5.072a2.65 2.65 0 11-1.984 4.913 2.65 2.65 0 011.985-4.913zm104.844 1.355a2.65 2.65 0 11-5.247.737 2.65 2.65 0 015.247-.737zm-117.992-5.89a3.338 3.338 0 11-2.5 6.19 3.338 3.338 0 012.5-6.19zm132.102 1.708a3.338 3.338 0 11-6.61.929 3.338 3.338 0 016.61-.93zm-8.594-4.735a3.023 3.023 0 11-5.84 1.565 3.023 3.023 0 015.84-1.565zm-114.08-2.019a3.023 3.023 0 11-3.024 5.237 3.023 3.023 0 013.024-5.237zm9.569-3.001a2.65 2.65 0 11-3.189 4.23 2.65 2.65 0 013.189-4.23zm93.381.423a2.65 2.65 0 11-4.877 2.07 2.65 2.65 0 014.877-2.07zm26.039-1.904a3.81 3.81 0 11-7.36 1.972 3.81 3.81 0 017.36-1.972zM10.969 47.183a3.81 3.81 0 11-3.809 6.599 3.81 3.81 0 013.81-6.599zm12.693-3.781a3.338 3.338 0 11-4.017 5.331 3.338 3.338 0 014.017-5.331zm117.661.533a3.338 3.338 0 11-6.145 2.608 3.338 3.338 0 016.145-2.608zm-9.76-2.235a3.023 3.023 0 11-5.237 3.024 3.023 3.023 0 015.237-3.024zm-97.233-.783a3.023 3.023 0 11-4.276 4.276 3.023 3.023 0 014.276-4.276zm9.866-.35a2.65 2.65 0 11-4.175 3.262 2.65 2.65 0 014.175-3.262zm75.556-.537a2.65 2.65 0 11-4.175 3.262 2.65 2.65 0 014.175-3.262zm24.578-8.608a3.81 3.81 0 11-6.599 3.81 3.81 3.81 0 016.599-3.81zm-122.515-.987a3.81 3.81 0 11-5.387 5.388 3.81 3.81 0 015.387-5.388zm33.736 2.159a2.65 2.65 0 11-4.877 2.07 2.65 2.65 0 014.877-2.07zm52.583-1.46a2.65 2.65 0 11-3.189 4.231 2.65 2.65 0 013.189-4.231zm-73.251-1.14a3.338 3.338 0 11-5.26 4.11 3.338 3.338 0 015.26-4.11zm84.962-.194a3.023 3.023 0 11-4.276 4.276 3.023 3.023 0 014.276-4.276zm-73.76.505a3.023 3.023 0 11-5.238 3.024 3.023 3.023 0 015.237-3.024zm83.999-.987a3.338 3.338 0 11-5.26 4.11 3.338 3.338 0 015.26-4.11zm-61.5-1.487a2.65 2.65 0 11-5.247.738 2.65 2.65 0 015.247-.738zm26.024-2.284a2.65 2.65 0 11-1.984 4.913 2.65 2.65 0 011.984-4.913zm-14.487-1.912a2.62 2.62 0 11-.639 5.201 2.62 2.62 0 01.639-5.201zm25.325-2.297a3.023 3.023 0 11-3.023 5.237 3.023 3.023 0 013.023-5.237zm-45.261 1.76a3.023 3.023 0 11-5.841 1.565 3.023 3.023 0 015.84-1.565zm-10.994-3.15a3.338 3.338 0 11-6.145 2.609 3.338 3.338 0 016.145-2.609zm66.254-1.84a3.338 3.338 0 11-4.018 5.332 3.338 3.338 0 014.018-5.331zm14.12-1.68a3.81 3.81 0 11-5.388 5.387 3.81 3.81 0 015.388-5.387zm-40.217.463a3.023 3.023 0 11-1.565 5.84 3.023 3.023 0 011.565-5.84zm-16.701-.13a3.023 3.023 0 110 6.048 3.023 3.023 0 010-6.047zm-36.02.304a3.81 3.81 0 11-6.6 3.81 3.81 3.81 0 016.6-3.81zm28.985-3.118a3.338 3.338 0 11-6.611.93 3.338 3.338 0 016.61-.93zm32.79-2.877a3.338 3.338 0 11-2.5 6.19 3.338 3.338 0 012.5-6.19zM80.149 8.66a3.302 3.302 0 11-.804 6.553 3.302 3.302 0 01.804-6.553zm31.274-2.894a3.81 3.81 0 11-3.81 6.598 3.81 3.81 0 013.81-6.598zm-57.03 2.217a3.81 3.81 0 11-7.359 1.972 3.81 3.81 0 017.36-1.972zM91.139.163a3.81 3.81 0 11-1.972 7.359 3.81 3.81 0 011.972-7.36zM70.095 0a3.81 3.81 0 110 7.619 3.81 3.81 0 010-7.619z" id="colo"></path></defs>
<use fill="#3b3b3b" xlink:href="#colo">
</use><use fill="url(#linea_b)" xlink:href="#colo">
</use>

<!-- candado centrado y escalado -->
  <g transform="translate(48.2, 50) scale(1.5)">
    <path d="m28.8613139 36c2.1029197 0 3.1386861-.9994952 3.1386861-3.2104997v-11.3427562c0-1.9989904-.8474453-3.0136295-2.6051095-3.180212v-3.7405351c0-5.75466939-3.9704379-8.525997-8.1448905-8.525997s-8.1448905 2.77132761-8.1448905 8.525997v3.7859667c-1.6321168.2423018-2.6051095 1.241797-2.6051095 3.1347804v11.3427562c0 2.2110045 1.0357664 3.2104997 3.1386861 3.2104997zm-12.7430657-17.7486118v-3.9979808c0-3.528521 2.3226277-5.46693592 5.1317518-5.46693592 2.7934307 0 5.1317518 1.93841492 5.1317518 5.46693592v3.9828369z" fill="#fc0"/>
  </g>
</svg>